<svg width="66" height="49" viewBox="0 0 66 49" fill="none" xmlns="http://www.w3.org/2000/svg">
<path fill-rule="evenodd" clip-rule="evenodd" d="M5.12812 38.2216H3.07735C1.37805 38.2216 0 36.852 0 35.163V13.6931C0 12.0042 1.37805 10.6346 3.07735 10.6346H4.79096C6.49027 10.6346 7.86831 12.0042 7.86831 13.6931V35.4981C7.86831 37.0021 6.64135 38.2216 5.12812 38.2216Z" fill="#F7BD02"/>
<path fill-rule="evenodd" clip-rule="evenodd" d="M48.3502 48.8562H46.2994C44.6001 48.8562 43.222 47.4865 43.222 45.7976V3.05855C43.222 1.36963 44.6001 0 46.2994 0H48.013C49.7123 0 51.0904 1.36963 51.0904 3.05855V46.1327C51.0904 47.6367 49.8634 48.8562 48.3502 48.8562Z" fill="#F7BD02"/>
<path fill-rule="evenodd" clip-rule="evenodd" d="M19.5355 48.8562H17.4847C15.7854 48.8562 14.4073 47.4865 14.4073 45.7976V3.05855C14.4073 1.36963 15.7854 0 17.4847 0H19.1983C20.8976 0 22.2757 1.36963 22.2757 3.05855V46.1327C22.2757 47.6367 21.0487 48.8562 19.5355 48.8562Z" fill="white"/>
<path fill-rule="evenodd" clip-rule="evenodd" d="M62.7575 38.2216H60.7067C59.0074 38.2216 57.6294 36.852 57.6294 35.163V13.6931C57.6294 12.0042 59.0074 10.6346 60.7067 10.6346H62.4204C64.1197 10.6346 65.4977 12.0042 65.4977 13.6931V35.4981C65.4977 37.0021 64.2707 38.2216 62.7575 38.2216Z" fill="white"/>
<path fill-rule="evenodd" clip-rule="evenodd" d="M33.9428 39.0867H31.8921C30.1927 39.0867 28.8147 37.7171 28.8147 36.0282V15.1676C28.8147 13.4779 30.1927 12.1091 31.8921 12.1091H33.6057C35.305 12.1091 36.683 13.4779 36.683 15.1676V36.3633C36.683 37.8673 35.4561 39.0867 33.9428 39.0867Z" fill="#F7BD02"/>
</svg>
